<svg width="56" height="17" viewBox="0 0 56 17" fill="none" xmlns="http://www.w3.org/2000/svg">
<path d="M9.4248 5.56201C9.4248 3.7391 9.88867 2.4248 10.8164 1.61914C11.7686 0.797201 13.2944 0.38623 15.394 0.38623H16.1387V9.16309C16.1387 12.9473 15.0563 15.3724 12.8916 16.4385C12.1348 16.8128 11.2274 17 10.1694 17H9.4248V5.56201ZM6.54395 17C4.5013 17 2.97949 16.2879 1.97852 14.8638C1.05078 13.5454 0.586914 11.6452 0.586914 9.16309V0.38623H1.33154C3.43115 0.38623 4.95703 0.797201 5.90918 1.61914C6.83691 2.4248 7.30078 3.7391 7.30078 5.56201V17H6.54395ZM19.6665 0.38623H26.2339V17H19.6665V0.38623ZM38.5874 0.38623H39.686C42.6808 0.38623 44.4671 1.39941 45.0449 3.42578C45.2402 4.0931 45.3379 4.85807 45.3379 5.7207V17H38.5874V0.38623ZM29.7251 0.38623H36.2925V17H29.7251V0.38623ZM48.8413 0.38623H55.4087V17H48.8413V0.38623Z" fill="#F0F0F0"/>
</svg>
